<?xml version="1.0" encoding="utf-8"?><!-- Generator: Adobe Illustrator 27.6.1, SVG Export Plug-In . SVG Version: 6.00 Build 0)  --><svg version="1.1" id="Layer_1" xmlns="http://www.w3.org/2000/svg" xmlns:xlink="http://www.w3.org/1999/xlink" x="0px" y="0px" viewBox="0 0 244.1 260" style="enable-background:new 0 0 244.1 260;" xml:space="preserve"><style type="text/css">
	.st0{fill:#FFFFFF;}
</style><g><path class="st0" d="m78.3 214.5l-37.8.7h-.8V70.5l1.1.6L9.1 92.7l-1.1.7V45.1l.3-.1c.1-.1 55.6-37.3 55.8-37.4h21.8v.6c-.1 27-.1 90.7-.2 116.7c-.3 12.8.3 26.5-.5 38.9l-.3-38.9c-.2-25.8-.2-90.1-.2-116.7l.6.6h-21C65.8 7.9 8.7 46.3 9 46.1l.3-.6v46.6l-1.1-.6L40 70l1.1-.8v145.2l-.7-.7c.1.1 37.9.8 37.9.8z"/></g><g><path class="st0" d="m223.3 32.1l.5 50.3v.5h-62.2l.5-.4l-4.9 29l-.6-.6c26.2-2.2 56.5 6.4 70.4 30.4c8.4 14.7 9.8 32.3 9 48.9c-3.8 42.3-37.6 63.2-77.8 62.2c-21 .3-38.8-10.3-52.5-25.6c-4.5-5-8.5-10.3-12-16c7 11.3 16.2 21.3 27.1 29c8.2 5.7 17.5 9.9 27.4 11.2c9.9 1.2 20 .8 29.8-.9c35.9-5.9 58.3-33.5 56.7-69.9c-.1-19.5-5.5-40.7-21.8-53c-15.7-12.3-36.6-16.6-56.2-15.3l-.7.1l.1-.7l4.9-29l.1-.4h62.1l-.5.5l.6-50.3z"/></g><g><path class="st0" d="m85.2 166.9c22.7-13.7 50.7-23.3 77.1-16c16 4.3 28.2 17 29.1 33.9c1.3 12.1-5.3 22.7-16.3 27.7c-8.2 3.7-17.9 5-26.5 1.8c-8.4-3.3-14.9-10.3-19.5-17.9h.1c4.7 7.4 11.3 14.2 19.7 17.3c12.3 4.2 27.8-.2 35.9-10.3c5.7-6.9 6.1-16.5 4-24.9c-3-13.2-14.3-22.6-27-26.1c-26-7.5-53.6 2-76.6 14.5z"/></g></svg>